<svg width="100" height="38" viewBox="0 0 100 38" fill="none" xmlns="http://www.w3.org/2000/svg">
<path fill-rule="evenodd" clip-rule="evenodd" d="M11.3121 9.31406C9.07801 9.31406 6.95036 9.98694 5.17731 11.1556C5.32693 10.75 5.45078 10.3959 5.55663 10.0933L5.55666 10.0932C5.62641 9.89376 5.68834 9.71669 5.74468 9.56196C6.56028 7.43708 8.47518 6.37464 10.7801 6.16215C13.0851 5.94966 20.1064 5.31219 20.1064 5.31219V0.0354004L14.3617 0.672865C4.39716 1.62906 0 4.07268 0 17.7073C0 26.4194 4.46809 30.4212 10.8865 30.4212C17.305 30.4212 21.5603 26.4194 21.5603 19.8676C21.5603 13.3159 17.1986 9.31406 11.3121 9.31406ZM14.3617 24.507C13.4397 25.4986 12.2695 25.9944 10.8511 25.9944C9.43262 25.9944 8.29787 25.4986 7.37589 24.4716C6.4539 23.4445 5.99291 21.8863 5.99291 19.7968C5.99291 17.7782 6.4539 16.2553 7.37589 15.2283C8.29787 14.2013 9.43262 13.7055 10.8511 13.7055C12.2695 13.7055 13.4397 14.2013 14.3617 15.2283C15.2837 16.2553 15.7447 17.7782 15.7447 19.8322C15.7447 21.9571 15.2837 23.4799 14.3617 24.507ZM99.7518 20.576H94.0071V0.460391H99.7518V20.576ZM93.7589 23.7633V29.9963H100V23.7633H93.7589ZM52.0213 12.0764C53.5106 10.3765 55.6383 9.31405 58.4042 9.31405C64.3262 9.31405 68.0496 14.0596 68.0496 19.8676C68.0496 25.6757 64.3262 30.4212 58.4397 30.4212C55.922 30.4212 53.9361 29.5713 52.4822 28.1193V38H46.8794V9.73903H52.0213V12.0764ZM57.3759 26.0298C58.7943 26.0298 59.9291 25.534 60.851 24.507C61.7376 23.4799 62.1986 21.9571 62.234 19.9739C62.234 17.8844 61.773 16.3262 60.851 15.2991C59.9291 14.2721 58.7943 13.7763 57.3759 13.7763C55.9574 13.7763 54.7872 14.2721 53.8652 15.2637C52.9432 16.2553 52.4822 17.8136 52.4822 19.9031C52.4822 21.9571 52.9432 23.4799 53.8652 24.507C54.7872 25.534 55.9574 26.0298 57.3759 26.0298ZM84.0071 9.73901L79.1489 23.3737L74.1489 9.7036H68.0851L76.2766 30.2087C75.2837 31.8732 73.8652 32.369 71.9503 32.369H69.6808V37.5396H72.5532C76.5603 37.5396 80.1418 35.3084 81.9858 30.315L89.6454 9.7036H84.0071V9.73901ZM34.2907 9.13698C41.2766 9.13698 44.3617 13.918 44.3617 19.7968C44.3617 20.328 44.3262 21.1426 44.2907 21.603H29.4326C29.7517 24.1528 32.3759 26.0652 36.5603 26.0652C40.3191 26.0652 42.5177 24.7549 42.5177 24.7549V29.0755C42.5177 29.0755 39.7517 30.6691 35.6737 30.6691C27.7305 30.6691 23.5461 25.9944 23.5461 19.7968C23.5461 13.918 27.3049 9.13698 34.2907 9.13698ZM34.2198 13.4222C31.4184 13.4222 29.539 15.5825 29.4326 17.5657H38.8652C38.7588 15.6179 37.0212 13.4222 34.2198 13.4222Z" fill="white"/>
</svg>
