<svg width="113" height="43" viewBox="0 0 113 43" fill="none" xmlns="http://www.w3.org/2000/svg">
<g clip-path="url(#clip0)">
<path fill-rule="evenodd" clip-rule="evenodd" d="M12.7826 10.5396C10.2582 10.5396 7.8539 11.301 5.85035 12.6235C6.01944 12.1645 6.1594 11.7637 6.27901 11.4213L6.27903 11.4212C6.35784 11.1956 6.42783 10.9952 6.49149 10.8201C7.41312 8.41562 9.57695 7.21338 12.1816 6.97294C14.7862 6.73249 22.7202 6.01115 22.7202 6.01115V0.0400391L16.2287 0.761381C4.96879 1.84339 0 4.60854 0 20.0372C0 29.8956 5.04894 34.424 12.3018 34.424C19.5546 34.424 24.3631 29.8956 24.3631 22.4818C24.3631 15.068 19.4344 10.5396 12.7826 10.5396ZM16.2287 27.7316C15.1869 28.8536 13.8645 29.4147 12.2617 29.4147C10.6589 29.4147 9.3766 28.8536 8.33475 27.6915C7.29291 26.5293 6.77199 24.766 6.77199 22.4016C6.77199 20.1174 7.29291 18.3942 8.33475 17.232C9.3766 16.0699 10.6589 15.5088 12.2617 15.5088C13.8645 15.5088 15.1869 16.0699 16.2287 17.232C17.2706 18.3942 17.7915 20.1174 17.7915 22.4417C17.7915 24.8462 17.2706 26.5694 16.2287 27.7316ZM112.72 23.2832H106.228V0.520886H112.72V23.2832ZM105.948 26.8899V33.9431H113V26.8899H105.948ZM58.784 13.6654C60.467 11.7418 62.8713 10.5395 65.9968 10.5395C72.6887 10.5395 76.8961 15.9095 76.8961 22.4818C76.8961 29.054 72.6887 34.424 66.0369 34.424C63.1918 34.424 60.9479 33.4622 59.305 31.8191V42.9999H52.9738V11.0204H58.784V13.6654ZM64.8348 29.4547C66.4376 29.4547 67.7199 28.8937 68.7617 27.7315C69.7635 26.5694 70.2844 24.8462 70.3245 22.602C70.3245 20.2376 69.8036 18.4743 68.7617 17.3122C67.7199 16.15 66.4376 15.5889 64.8348 15.5889C63.2319 15.5889 61.9096 16.15 60.8677 17.2721C59.8259 18.3942 59.305 20.1574 59.305 22.5218C59.305 24.8462 59.8259 26.5694 60.8677 27.7315C61.9096 28.8937 63.2319 29.4547 64.8348 29.4547ZM94.928 11.0205L89.4383 26.4492L83.7883 10.9804H76.9362L86.1926 34.1836C85.0706 36.0671 83.4677 36.6281 81.3039 36.6281H78.7394V42.479H81.9851C86.5131 42.479 90.5603 39.9543 92.644 34.3038L101.299 10.9804H94.928V11.0205ZM38.7486 10.3392C46.6426 10.3392 50.1287 15.7493 50.1287 22.4017C50.1287 23.0028 50.0887 23.9245 50.0486 24.4455H33.2589C33.6195 27.3308 36.5848 29.4948 41.3131 29.4948C45.5606 29.4948 48.045 28.0121 48.045 28.0121V32.9012C48.045 32.9012 44.9195 34.7045 40.3113 34.7045C31.3355 34.7045 26.6071 29.4147 26.6071 22.4017C26.6071 15.7493 30.8546 10.3392 38.7486 10.3392ZM38.6684 15.1882C35.5028 15.1882 33.3791 17.6328 33.2589 19.877H43.9177C43.7975 17.6729 41.834 15.1882 38.6684 15.1882Z" fill="#6D3DF7"/>
</g>
<defs>
<clipPath id="clip0">
<rect width="113" height="43" fill="white"/>
</clipPath>
</defs>
</svg>
