<svg width="68" height="26" viewBox="0 0 68 26" fill="none" xmlns="http://www.w3.org/2000/svg">
<path fill-rule="evenodd" clip-rule="evenodd" d="M7.6922 6.37273C6.17305 6.37273 4.72624 6.83312 3.52057 7.63274C3.62232 7.35521 3.70655 7.1129 3.77853 6.90581C3.82596 6.76936 3.86807 6.64821 3.90638 6.54234C4.46099 5.08848 5.76312 4.36154 7.3305 4.21616C8.89787 4.07077 13.6723 3.63461 13.6723 3.63461V0.0241699L9.76596 0.46033C2.99007 1.11457 0 2.78652 0 12.1155C0 18.0764 3.0383 20.8145 7.40284 20.8145C11.7674 20.8145 14.661 18.0764 14.661 13.5936C14.661 9.11084 11.695 6.37273 7.6922 6.37273ZM9.76596 16.7679C9.13901 17.4464 8.34326 17.7856 7.37872 17.7856C6.41418 17.7856 5.64255 17.4464 5.0156 16.7436C4.38865 16.0409 4.07518 14.9748 4.07518 13.5451C4.07518 12.164 4.38865 11.122 5.0156 10.4193C5.64255 9.71662 6.41418 9.37739 7.37872 9.37739C8.34326 9.37739 9.13901 9.71662 9.76596 10.4193C10.3929 11.122 10.7064 12.164 10.7064 13.5694C10.7064 15.0232 10.3929 16.0652 9.76596 16.7679ZM67.8311 14.0781H63.9248V0.314846H67.8311V14.0781ZM63.756 16.2589V20.5236H67.9999V16.2589H63.756ZM35.3744 8.26274C36.3872 7.09965 37.834 6.37272 39.7149 6.37272C43.7418 6.37272 46.2737 9.61969 46.2737 13.5936C46.2737 17.5675 43.7418 20.8145 39.739 20.8145C38.0269 20.8145 36.6766 20.2329 35.6879 19.2394V25.9999H31.878V6.66349H35.3744V8.26274ZM39.0156 17.8098C39.9801 17.8098 40.7517 17.4706 41.3787 16.7679C41.9815 16.0652 42.295 15.0232 42.3191 13.6663C42.3191 12.2367 42.0056 11.1705 41.3787 10.4678C40.7517 9.76508 39.9801 9.42584 39.0156 9.42584C38.051 9.42584 37.2553 9.76507 36.6283 10.4435C36.0014 11.122 35.6879 12.1882 35.6879 13.6178C35.6879 15.0232 36.0014 16.0652 36.6283 16.7679C37.2553 17.4706 38.051 17.8098 39.0156 17.8098ZM57.1249 6.66343L53.8213 15.9924L50.4213 6.6392H46.2979L51.8681 20.669C51.1929 21.8079 50.2284 22.1471 48.9263 22.1471H47.383V25.6849H49.3362C52.061 25.6849 54.4965 24.1583 55.7504 20.7417L60.9589 6.6392H57.1249V6.66343ZM23.3177 6.25158C28.0681 6.25158 30.166 9.52278 30.166 13.5451C30.166 13.9086 30.1419 14.4659 30.1177 14.7809H20.0142C20.2312 16.5256 22.0156 17.8341 24.861 17.8341C27.417 17.8341 28.9121 16.9375 28.9121 16.9375V19.8937C28.9121 19.8937 27.0312 20.9841 24.2582 20.9841C18.8568 20.9841 16.0114 17.7856 16.0114 13.5451C16.0114 9.52278 18.5674 6.25158 23.3177 6.25158ZM23.2695 9.18355C21.3646 9.18355 20.0865 10.6616 20.0142 12.0186H26.4284C26.356 10.6859 25.1745 9.18355 23.2695 9.18355Z" fill="#6D3DF7"/>
</svg>
